<?xml version="1.0" encoding="iso-8859-1"?>
<!-- Generator: Adobe Illustrator 16.0.0, SVG Export Plug-In . SVG Version: 6.00 Build 0)  -->
<!DOCTYPE svg PUBLIC "-//W3C//DTD SVG 1.1//EN" "http://www.w3.org/Graphics/SVG/1.1/DTD/svg11.dtd">
<svg version="1.1" id="Capa_1" xmlns="http://www.w3.org/2000/svg" xmlns:xlink="http://www.w3.org/1999/xlink" x="0px" y="0px"
	 width="30px" height="30px" viewBox="0 0 30 30" style="enable-background:new 0 0 30 30;" xml:space="preserve" fill="current">
<g>
	<path d="M30,16.011c0-4.176-4.391-7.563-9.807-7.563c-0.098,0-0.193,0.001-0.289,0.004c2.102,1.669,3.396,3.945,3.396,6.455
		c0,3.569-2.618,6.667-6.454,8.214c1.045,0.291,2.172,0.451,3.348,0.451c2.207,0,4.244-0.562,5.886-1.512l3.558,1.512l-1.387-3.248
		C29.354,19.102,30,17.615,30,16.011z"/>
	<path d="M18.801,8.99c-1.988-1.581-4.773-2.562-7.854-2.562C4.901,6.428,0,10.207,0,14.869c0,1.79,0.724,3.45,1.957,4.815
		L0.41,23.31l3.97-1.688c1.83,1.062,4.104,1.688,6.567,1.688c1.829,0,3.552-0.346,5.067-0.957c3.495-1.409,5.881-4.231,5.881-7.483
		C21.896,12.584,20.716,10.509,18.801,8.99z M6.276,16.011c-0.738,0-1.336-0.599-1.336-1.336c0-0.738,0.598-1.336,1.336-1.336
		c0.738,0,1.336,0.598,1.336,1.336C7.612,15.413,7.014,16.011,6.276,16.011z M10.948,16.011c-0.738,0-1.336-0.599-1.336-1.336
		c0-0.738,0.598-1.336,1.336-1.336c0.738,0,1.336,0.598,1.336,1.336C12.284,15.413,11.686,16.011,10.948,16.011z M15.62,16.01
		c-0.737,0-1.335-0.598-1.335-1.335c0-0.737,0.598-1.335,1.335-1.335s1.335,0.598,1.335,1.335
		C16.955,15.412,16.357,16.01,15.62,16.01z"/>
</g>
<g>
</g>
<g>
</g>
<g>
</g>
<g>
</g>
<g>
</g>
<g>
</g>
<g>
</g>
<g>
</g>
<g>
</g>
<g>
</g>
<g>
</g>
<g>
</g>
<g>
</g>
<g>
</g>
<g>
</g>
</svg>
